<svg height="496pt" viewBox="0 0 496 496" width="496pt" xmlns="http://www.w3.org/2000/svg"><path d="m288 344c0 39.703125 32.304688 72 72 72s72-32.296875 72-72c0-36.136719-26.785156-66.046875-61.511719-71.144531 4.574219-26.953125 15.953125-32.855469 37.511719-32.855469v-16c-36.457031 0-49.304688 19.792969-53.726562 48.289062-37.027344 2.941407-66.273438 33.941407-66.273438 71.710938zm64.59375-55.457031c-.296875 5-.472656 10.152343-.546875 15.457031h-16.046875v16h48v-16h-15.910156c.09375-5.535156.300781-10.609375.613281-15.257812 26.753906 4.210937 47.296875 27.355468 47.296875 55.257812 0 30.871094-25.121094 56-56 56s-56-25.128906-56-56c0-28.359375 21.207031-51.808594 48.59375-55.457031zm0 0"/><path d="m496 192v-16c0-8.824219-7.175781-16-16-16h-88v-8c0-17.648438-14.351562-32-32-32s-32 14.351562-32 32v8h-38.40625v16h190.40625v16h-240v-16h32v-58.808594l-23.351562-29.191406h7.351562c8.824219 0 16-7.175781 16-16v-16c0-8.824219-7.175781-16-16-16h-88v-8c0-17.648438-14.351562-32-32-32s-32 14.351562-32 32v8h-88c-8.824219 0-16 7.175781-16 16v16c0 8.824219 7.175781 16 16 16h7.351562l-23.351562 29.191406v204.695313l27.054688 54.113281h196.945312v65.886719l27.054688 54.113281h217.890624l27.054688-54.113281v-204.695313l-23.351562-29.191406h7.351562c8.824219 0 16-7.175781 16-16zm-152-40c0-8.824219 7.175781-16 16-16s16 7.175781 16 16v8h-32zm-224-120c0-8.824219 7.175781-16 16-16s16 7.175781 16 16v8h-32zm-104.007812 24h240.007812v16h-240zm27.855468 32h184.3125l27.839844 34.808594v37.191406h-16c-8.824219 0-16 7.175781-16 16v16c0 8.824219 7.175781 16 16 16h7.351562l-23.351562 29.191406v74.808594h-208v-189.191406zm-6.902344 272-16-32h203.054688v32zm422.109376 120h-198.109376l-16-32h230.109376zm20.945312-237.191406v189.191406h-240v-189.191406l27.847656-34.808594h184.3125zm0 0"/><path d="m136 296c39.695312 0 72-32.296875 72-72 0-36.136719-26.785156-66.046875-61.511719-71.144531 4.574219-26.953125 15.953125-32.855469 37.511719-32.855469v-16c-36.457031 0-49.304688 19.792969-53.726562 48.289062-37.027344 2.941407-66.273438 33.941407-66.273438 71.710938 0 39.703125 32.304688 72 72 72zm-7.40625-127.457031c-.296875 5-.472656 10.152343-.546875 15.457031h-16.046875v16h48v-16h-15.910156c.09375-5.535156.300781-10.609375.613281-15.257812 26.753906 4.210937 47.296875 27.355468 47.296875 55.257812 0 30.871094-25.121094 56-56 56s-56-25.128906-56-56c0-28.359375 21.207031-51.808594 48.59375-55.457031zm0 0"/></svg>